<?xml version="1.0" encoding="UTF-8"?>
<svg version="1.1" xmlns="http://www.w3.org/2000/svg" width="600" height="600">
<path d="M0 0 C198 0 396 0 600 0 C600 198 600 396 600 600 C402 600 204 600 0 600 C0 402 0 204 0 0 Z " fill="#FEFEFE" transform="translate(0,0)"/>
<path d="M0 0 C60.81465517 0 60.81465517 0 75.0078125 12.8125 C83.98677031 22.67174779 86.30749 32.98262698 86.37109375 45.8203125 C86.38012222 46.95596649 86.3891507 48.09162048 86.39845276 49.26168823 C86.41292435 51.66043476 86.42183428 54.05922049 86.42553711 56.45800781 C86.43739394 60.09249034 86.48658067 63.72525215 86.53710938 67.359375 C86.64821222 83.12511984 85.97188244 95.34577175 75.23828125 107.77734375 C54.85126352 128.02204373 27.70643288 122 0 122 C0 81.74 0 41.48 0 0 Z " fill="#070707" transform="translate(218,239)"/>
<path d="M0 0 C0 5.28 0 10.56 0 16 C1.588125 14.783125 3.17625 13.56625 4.8125 12.3125 C13.99287116 5.62833801 23.95465066 1.02143487 35.375 0.375 C37.24285156 0.26285156 37.24285156 0.26285156 39.1484375 0.1484375 C40.08945313 0.09945312 41.03046875 0.05046875 42 0 C42.0697738 9.21488863 42.12294944 18.42968512 42.15543652 27.64478111 C42.17103542 31.92457849 42.19216697 36.20419398 42.22631836 40.48388672 C42.25911939 44.62065014 42.27689635 48.75723955 42.28463173 52.89412308 C42.29013826 54.46564087 42.30089037 56.03715008 42.31719017 57.60859299 C42.40219707 66.15035466 42.24284226 73.94704344 39 82 C38.525625 83.19367188 38.05125 84.38734375 37.5625 85.6171875 C29.92109231 101.54952253 17.99385238 113.1010317 1.5078125 119.77734375 C-5.4342486 122.19701538 -11.66306944 123 -19 123 C-19.33 117.72 -19.66 112.44 -20 107 C-21.8253125 108.546875 -21.8253125 108.546875 -23.6875 110.125 C-34.27014551 118.30626272 -47.54141586 123.36103504 -61 123 C-62.22796511 107.34344486 -62.22796511 107.34344486 -59.46484375 102.0703125 C-58.09765943 100.50555819 -56.68684741 98.97801447 -55.23828125 97.48828125 C-52.6076891 94.56387078 -50.85651568 91.43504042 -49.125 87.9375 C-48.57070312 86.83277344 -48.01640625 85.72804688 -47.4453125 84.58984375 C-44.05976579 76.18087774 -43.77995784 68.36536622 -43.9375 59.37109375 C-43.94643021 56.9303462 -43.95286533 54.48958846 -43.95703125 52.04882812 C-43.97129592 48.23401155 -44.00029295 44.42186911 -44.07177734 40.60766602 C-44.13521115 36.90251147 -44.13530233 33.20168289 -44.125 29.49609375 C-44.16101318 28.36255966 -44.19702637 27.22902557 -44.23413086 26.06114197 C-44.17652024 21.24234423 -44.07579884 18.21964895 -40.81002808 14.51719666 C-38.2891226 12.47354218 -35.76598783 10.69308986 -33 9 C-31.42605469 8.01580078 -31.42605469 8.01580078 -29.8203125 7.01171875 C-20.07235484 2.22250477 -10.90956259 -0.54547813 0 0 Z " fill="#FC5A3C" transform="translate(134,239)"/>
<path d="M0 0 C1.36468212 1.00673271 2.72006749 2.02628428 4.0625 3.0625 C5.09375 3.76375 6.125 4.465 7.1875 5.1875 C13.69785798 10.80677547 17.62421915 19.74385679 19.0625 28.0625 C19.33724809 31.85381241 19.34319249 35.62964336 19.328125 39.4296875 C19.33003845 40.50445343 19.3319519 41.57921936 19.33392334 42.68655396 C19.33527889 44.95070633 19.33162669 47.21486665 19.32324219 49.47900391 C19.31255505 52.91977665 19.32314841 56.36002482 19.3359375 59.80078125 C19.33461538 62.01041781 19.33205191 64.22005404 19.328125 66.4296875 C19.33217346 67.44666718 19.33622192 68.46364685 19.34039307 69.51144409 C19.25644747 82.48693978 16.5073301 94.52977872 7.5 104.375 C-1.67772733 112.86040361 -11.50331171 116.24145714 -23.625 116.3125 C-24.48544922 116.333125 -25.34589844 116.35375 -26.23242188 116.375 C-37.79973874 116.44473514 -47.45231189 111.93817795 -56.015625 104.1796875 C-68.79278673 90.45812686 -68.31115544 73.06008969 -68.30810547 55.40380859 C-68.31249338 52.56677815 -68.34898677 49.73128987 -68.38671875 46.89453125 C-68.48349639 31.25692059 -66.84427586 17.56410448 -55.71484375 5.69140625 C-40.45866735 -9.03285909 -18.11370576 -11.72241493 0 0 Z " fill="#050505" transform="translate(379.9375,244.9375)"/>
<path d="M0 0 C0.05506435 13.72693124 -0.06243245 27.45127229 -0.26245117 41.17675781 C-0.29596151 43.65292629 -0.32390906 46.12917599 -0.34643555 48.60546875 C-0.38013682 52.23468957 -0.432359 55.86324908 -0.48828125 59.4921875 C-0.49786613 61.13161819 -0.49786613 61.13161819 -0.50764465 62.8041687 C-0.76666517 76.48448437 -4.71097834 89.59330263 -14.3125 99.625 C-20.03338525 106.25032997 -19.1447974 114.6922494 -19 123 C-19.33 123 -19.66 123 -20 123 C-20.495 115.575 -20.495 115.575 -21 108 C-22.44375 109.051875 -23.8875 110.10375 -25.375 111.1875 C-36.74112798 119.05635783 -48.02446024 123.15094761 -62 123 C-62.06988063 114.08042178 -62.12300275 105.16093954 -62.15543652 96.24114609 C-62.17101253 92.09816484 -62.19210097 87.95537255 -62.22631836 83.8125 C-62.25920267 79.8054039 -62.27691345 75.79848815 -62.28463173 71.7912674 C-62.2901236 70.27164119 -62.30084592 68.75202351 -62.31719017 67.23247528 C-62.50696147 48.83743222 -58.26246884 32.70666902 -45.32788086 19.13256836 C-32.78554089 6.59022839 -17.79314529 -0.56486176 0 0 Z " fill="#FA9A87" transform="translate(92,239)"/>
<path d="M0 0 C5.28 0 10.56 0 16 0 C18.92177905 7.03391253 21.42024619 14.14089555 23.75390625 21.38671875 C24.95637032 25.01586678 24.95637032 25.01586678 26.50390625 28.5078125 C28.01072879 32.02504318 29.21115808 35.54365935 30.375 39.1875 C32.26349181 45.00974771 34.46412504 50.6122039 36.8828125 56.23828125 C38.22286131 59.55091939 39.19023274 62.90269274 40.15991211 66.33764648 C41.00126241 69.00400076 42.02066345 71.49189385 43.13671875 74.0546875 C46.51822867 82.07640096 49.42977288 90.26233099 52.35864258 98.45800781 C53.32359006 101.15600788 54.2953064 103.85150684 55.26757812 106.546875 C55.88321413 108.2628768 56.49846319 109.97901748 57.11328125 111.6953125 C57.40382889 112.50042267 57.69437653 113.30553284 57.99372864 114.13504028 C60 119.77007021 60 119.77007021 60 122 C53.4 122 46.8 122 40 122 C39.236875 119.525 38.47375 117.05 37.6875 114.5 C35.95692286 108.92631712 34.13158872 103.43555123 32 98 C31.67 97.01 31.34 96.02 31 95 C15.82 94.67 0.64 94.34 -15 94 C-15.33 95.98 -15.66 97.96 -16 100 C-16.55231212 101.56099481 -17.15677236 103.10454785 -17.8125 104.625 C-20.18435314 110.32439803 -22.08913659 116.13091952 -24 122 C-30.6 122 -37.2 122 -44 122 C-41.93667291 114.88152153 -39.58136095 107.94532209 -37 101 C-36.33187239 99.16719858 -35.66520029 97.3338659 -35 95.5 C-33.66666667 91.83333333 -32.33333333 88.16666667 -31 84.5 C-30.68474365 83.63286377 -30.3694873 82.76572754 -30.04467773 81.87231445 C-29.41706734 80.14671587 -28.7890936 78.42124929 -28.16040039 76.69604492 C-26.0536536 70.91174682 -23.95981105 65.12285748 -21.87109375 59.33203125 C-21.59310944 58.56144379 -21.31512512 57.79085632 -21.02871704 56.99691772 C-19.87243974 53.79142959 -18.71626152 50.58590602 -17.56079102 47.38012695 C-16.70634921 45.00976319 -15.85126872 42.63963059 -14.99609375 40.26953125 C-14.73976669 39.55787308 -14.48343964 38.8462149 -14.21934509 38.11299133 C-12.51612266 33.39450404 -10.76656153 28.69514471 -9 24 C-8.37205034 22.27190232 -7.74671567 20.54285025 -7.125 18.8125 C-4.83996702 12.5065175 -2.4212211 6.25482118 0 0 Z " fill="#050505" transform="translate(439,239)"/>
<path d="M0 0 C0.0697738 9.21488863 0.12294944 18.42968512 0.15543652 27.64478111 C0.17103542 31.92457849 0.19216697 36.20419398 0.22631836 40.48388672 C0.25911939 44.62065014 0.27689635 48.75723955 0.28463173 52.89412308 C0.29013826 54.46564087 0.30089037 56.03715008 0.31719017 57.60859299 C0.40219707 66.15035466 0.24284226 73.94704344 -3 82 C-3.7115625 83.79050781 -3.7115625 83.79050781 -4.4375 85.6171875 C-12.07890769 101.54952253 -24.00614762 113.1010317 -40.4921875 119.77734375 C-47.34038589 122.16429931 -53.76946829 123.10509494 -61 123 C-62.07120085 107.08501594 -62.07120085 107.08501594 -59.6875 102.4453125 C-58.50431413 101.21458791 -57.27499444 100.02686745 -56.0078125 98.8828125 C-47.32378306 90.73942302 -43.53588707 77.68091678 -42.8197937 66.08081055 C-42.57171495 57.04003242 -42.69853108 47.98254427 -42.88647461 38.94140625 C-42.94961629 35.49124965 -42.95695262 32.0444049 -42.95703125 28.59375 C-42.99415726 27.54779663 -43.03128326 26.50184326 -43.0695343 25.42419434 C-43.04052748 20.96354897 -42.90455213 18.12835672 -40.05543518 14.5743103 C-35.82909049 10.74190835 -31.55031805 7.8541329 -26.3125 5.625 C-24.72888672 4.93277344 -24.72888672 4.93277344 -23.11328125 4.2265625 C-18.80632398 2.52971861 -14.62157633 0.89492734 -10 0.375 C-9.38125 0.30023438 -8.7625 0.22546875 -8.125 0.1484375 C-5.41398222 -0.04093507 -2.71685643 -0.00879092 0 0 Z " fill="#982F0B" transform="translate(176,239)"/>
<path d="M0 0 C34.34480244 0 34.34480244 0 42.62805176 7.41445923 C48.41614906 14.10367969 49.74138047 21.41009568 49.59375 29.9765625 C49.59379028 30.98665375 49.59383057 31.996745 49.59387207 33.03744507 C49.58854674 35.15686318 49.57109354 37.27628281 49.54199219 39.39550781 C49.50001735 42.6236655 49.50094359 45.84973926 49.5078125 49.078125 C49.49732182 51.14845187 49.48438438 53.21876809 49.46875 55.2890625 C49.46854858 56.2444693 49.46834717 57.1998761 49.46813965 58.18423462 C49.33596157 65.72767081 47.99374775 72.33655054 42.9375 78.25 C42.43089844 78.87390625 41.92429687 79.4978125 41.40234375 80.140625 C28.89247142 89.82306277 15.67900225 86 0 86 C0 57.62 0 29.24 0 0 Z " fill="#FCFCFC" transform="translate(237,257)"/>
<path d="M0 0 C6.83170026 3.99822458 10.38298677 9.17034778 12.4375 16.875 C12.83468468 20.41442766 12.83553927 23.9139402 12.80078125 27.47265625 C12.80152901 28.96230141 12.80152901 28.96230141 12.80229187 30.48204041 C12.79996277 32.57048556 12.79030348 34.65893414 12.77368164 36.74731445 C12.75004521 39.93140931 12.75313554 43.11466747 12.75976562 46.29882812 C12.75418926 48.33594246 12.74707965 50.37305329 12.73828125 52.41015625 C12.73964836 53.82760887 12.73964836 53.82760887 12.74104309 55.2736969 C12.64781372 64.02351736 11.26817514 71.05582647 4.796875 77.51171875 C-1.38324213 83.06038913 -6.3553493 84.29933217 -14.6328125 84.1171875 C-22.1479083 83.49593958 -27.71228228 79.39421327 -32.5625 73.875 C-37.88441193 65.00725238 -37.10703617 54.60755746 -36.97412109 44.65014648 C-36.93753518 41.81522617 -36.93310337 38.98161681 -36.93359375 36.14648438 C-36.92376193 34.31509306 -36.91210465 32.48371045 -36.8984375 30.65234375 C-36.89621185 29.81976547 -36.89398621 28.98718719 -36.89169312 28.12937927 C-36.63541844 11.96900587 -36.63541844 11.96900587 -31.25 6.5 C-30.62996094 5.86191406 -30.00992187 5.22382813 -29.37109375 4.56640625 C-21.09784369 -3.17078009 -10.5852282 -4.97378192 0 0 Z " fill="#FCFCFC" transform="translate(367.5625,259.125)"/>
<path d="M0 0 C6.27 0 12.54 0 19 0 C19.13609235 11.75349333 19.24594033 23.50645486 19.31087303 35.26056099 C19.34205318 40.71974317 19.38428045 46.17835373 19.45263672 51.63720703 C19.51830694 56.91518568 19.55380592 62.19261798 19.56926346 67.47097397 C19.58026485 69.47465478 19.60174602 71.47830906 19.63438034 73.4817543 C19.84562089 86.99985371 18.9682595 98.22155501 10.6875 109.5 C7.05441849 112.87961071 3.29558776 115.52551902 -1 118 C-1.69351563 118.41765625 -2.38703125 118.8353125 -3.1015625 119.265625 C-8.91872711 122.18448498 -14.67151299 122.41218759 -21.0625 122.5 C-21.90143799 122.51853027 -22.74037598 122.53706055 -23.60473633 122.55615234 C-31.52327587 122.47705225 -38.11427051 119.86065074 -44.375 115 C-45.00148438 114.525625 -45.62796875 114.05125 -46.2734375 113.5625 C-48.14520874 111.86858938 -49.55151821 110.06164279 -51 108 C-49.47236536 103.91403748 -46.88915809 102.20173821 -43.375 99.75 C-42.37210937 99.04359375 -41.36921875 98.3371875 -40.3359375 97.609375 C-39.56507813 97.07828125 -38.79421875 96.5471875 -38 96 C-35.15062989 97.31132302 -33.47126598 98.47248572 -31.0625 100.625 C-26.71892585 103.75424159 -22.45476538 103.76540716 -17.23046875 103.54296875 C-12.19607958 102.69680177 -8.43908505 100.78511209 -5 97 C-1.39749291 91.3439669 -0.41261344 86.54838853 -0.45410156 79.921875 C-0.44376389 79.05263901 -0.43342621 78.18340302 -0.42277527 77.28782654 C-0.39349977 74.44169184 -0.39185134 71.59627299 -0.390625 68.75 C-0.37563304 66.76601823 -0.35890377 64.7820489 -0.34051514 62.7980957 C-0.29694355 57.59661261 -0.27686509 52.39529786 -0.26177979 47.19366455 C-0.24217195 41.87770679 -0.20020607 36.56192985 -0.16015625 31.24609375 C-0.08496429 20.83075446 -0.03667446 10.41554621 0 0 Z " fill="#060606" transform="translate(551,239)"/>
<path d="M0 0 C2.16714831 2.16714831 2.64250054 3.41679947 3.60400391 6.27856445 C3.90416412 7.16320877 4.20432434 8.04785309 4.51358032 8.95930481 C4.83136444 9.91761703 5.14914856 10.87592926 5.4765625 11.86328125 C5.80667328 12.84741501 6.13678406 13.83154877 6.47689819 14.84550476 C7.17413244 16.93009707 7.86827308 19.01572625 8.55957031 21.10229492 C9.61830371 24.29232366 10.69129262 27.47730525 11.765625 30.66210938 C12.44097557 32.6872096 13.11548261 34.71259138 13.7890625 36.73828125 C14.11089508 37.69052078 14.43272766 38.64276031 14.76431274 39.62385559 C15.05816864 40.51795639 15.35202454 41.41205719 15.65478516 42.33325195 C15.91522614 43.11553665 16.17566711 43.89782135 16.44400024 44.70381165 C17 47 17 47 17 52 C5.78 52 -5.44 52 -17 52 C-15.87478728 44.12351096 -15.87478728 44.12351096 -14.63305664 40.39746094 C-14.35929703 39.56680115 -14.08553741 38.73614136 -13.80348206 37.88031006 C-13.50868454 37.00715149 -13.21388702 36.13399292 -12.91015625 35.234375 C-12.60556992 34.31916077 -12.30098358 33.40394653 -11.98716736 32.46099854 C-11.34533599 30.53715729 -10.70055254 28.61429866 -10.05297852 26.69238281 C-9.06184241 23.7480465 -8.0820323 20.80011361 -7.10351562 17.8515625 C-6.477231 15.97894296 -5.85030029 14.10653935 -5.22265625 12.234375 C-4.92988297 11.35311951 -4.63710968 10.47186401 -4.33546448 9.56390381 C-4.0585527 8.74585266 -3.78164093 7.92780151 -3.49633789 7.08496094 C-3.25508682 6.36661072 -3.01383575 5.6482605 -2.76527405 4.90814209 C-2 3 -2 3 0 0 Z " fill="#F6F6F6" transform="translate(447,265)"/>
</svg>
