<?xml version="1.0" encoding="UTF-8"?>
<svg version="1.1" xmlns="http://www.w3.org/2000/svg" width="2048" height="931">
<path d="M0 0 C675.84 0 1351.68 0 2048 0 C2048 307.23 2048 614.46 2048 931 C1372.16 931 696.32 931 0 931 C0 623.77 0 316.54 0 0 Z " fill="#FEFEFE" transform="translate(0,0)"/>
<path d="M0 0 C12.16751567 8.60806332 21.00238701 19.01018459 24.45703125 33.75 C24.91490571 36.01724027 24.91490571 36.01724027 26 38 C27.01512023 49.21246431 26.22550984 58.84362908 22.5 69.5 C18.69081636 80.40009647 16.85498824 88.93805411 21.87890625 99.8203125 C25.88991158 107.6187131 30.82698561 112.17628516 39.18139648 115.12158203 C43.93701939 116.46179382 48.72209059 117.65390653 53.51953125 118.83398438 C67.98724882 122.6276367 80.41894156 130.62866106 88.375 143.5 C91.14292396 148.26148825 93.39458502 152.73780646 95 158 C95.391875 159.19625 95.78375 160.3925 96.1875 161.625 C99.55511941 176.26558267 96.6365723 192.10034333 88.75439453 204.7043457 C83.32961238 212.85884359 76.14510152 220.9871379 67 225 C66.01 225 65.02 225 64 225 C64 225.66 64 226.32 64 227 C63.20335937 227.19335938 62.40671875 227.38671875 61.5859375 227.5859375 C60.52632812 227.84632813 59.46671875 228.10671875 58.375 228.375 C57.33085937 228.63023437 56.28671875 228.88546875 55.2109375 229.1484375 C52.00334998 229.95192189 52.00334998 229.95192189 48.96875 231.078125 C38.40278475 234.35913526 24.8516272 231.90658826 15.00585938 227.0078125 C-0.6732441 218.19124783 -10.25693497 205.61614588 -16.1484375 188.703125 C-17.18658585 184.18860834 -17.34246627 179.99156757 -17.3125 175.375 C-17.30831055 174.49489258 -17.30412109 173.61478516 -17.29980469 172.70800781 C-17.11866969 162.17520059 -15.0445537 153.24834846 -10 144 C-7.8550261 137.2828449 -7.79780141 129.45417775 -11 123.125 C-14.06335196 118.32487584 -18.41357112 114.21032693 -23.88671875 112.36328125 C-30.87597856 111.16180036 -38.01280741 110.99971185 -44.25 114.6640625 C-48.94400971 118.24743598 -52.16533216 122.37090548 -54 128 C-55.0748413 136.94867872 -53.20242536 143.21686557 -48.93359375 150.92578125 C-47.84934479 153.33471933 -47.39433489 155.58853174 -46.9375 158.1875 C-46.57815332 161.39132953 -46.57815332 161.39132953 -45 164 C-43.68710561 182.94319042 -47.02289243 198.14758365 -59.25 213.1875 C-63.27707395 217.59768055 -67.98909461 220.80085519 -73 224 C-73.87785156 224.60328125 -73.87785156 224.60328125 -74.7734375 225.21875 C-83.20724107 230.64929669 -92.86045334 231.28218438 -102.625 231.375 C-103.93041748 231.39578613 -103.93041748 231.39578613 -105.26220703 231.41699219 C-119.90171854 231.31208903 -133.11832969 224.76311384 -143.52734375 214.68359375 C-151.64870908 205.86941052 -154.86709306 196.28882169 -158 185 C-158.33 184.01 -158.66 183.02 -159 182 C-160.21003404 167.67657382 -157.37594387 151.74704006 -148.625 140.125 C-147.44089397 138.7290819 -146.23317179 137.35276819 -145 136 C-144.443125 135.37480469 -143.88625 134.74960937 -143.3125 134.10546875 C-134.53990525 124.78458683 -124.29956281 120.44959017 -112.02929688 117.55615234 C-100.83988987 114.91551498 -91.60719398 111.97213097 -85 102 C-80.66804569 94.37730295 -79.29047132 86.35452596 -81.59033203 77.80566406 C-82.80453559 73.85848181 -84.16817609 69.97806172 -85.58984375 66.1015625 C-90.65343078 51.96060878 -88.65034476 36.61410612 -83 23 C-76.68539421 10.30948157 -65.80782865 -0.18462271 -52.515625 -5.35546875 C-34.69232182 -10.94037257 -16.14658238 -10.34475956 0 0 Z " fill="#010101" transform="translate(402,352)"/>
<path d="M0 0 C0.91910156 0.19335938 1.83820313 0.38671875 2.78515625 0.5859375 C14.43896496 3.504127 25.14847115 11.12695648 34 19 C34.75796875 19.66386719 35.5159375 20.32773437 36.296875 21.01171875 C42.89871614 27.16964298 47.44059954 34.28762704 52 42 C52.433125 42.72058594 52.86625 43.44117188 53.3125 44.18359375 C56.96121968 50.81115099 60 59.43654217 60 67 C60.66 67 61.32 67 62 67 C64.11963192 75.81168166 64.30926648 84.38359651 64.26074219 93.38671875 C64.25008165 95.7320377 64.26065928 98.07658012 64.2734375 100.421875 C64.30395846 129.06956045 55.48175521 155.67751559 35.5625 176.8125 C22.76889887 188.85011561 6.99484622 195.57002534 -10 199 C-10.79575439 199.1757959 -11.59150879 199.3515918 -12.41137695 199.53271484 C-35.8142926 203.75729096 -59.6256713 197.29713406 -78.97265625 184.16796875 C-100.25078644 168.93008197 -110.82732499 146.61775697 -115.69140625 121.41796875 C-117.31327573 110.94953846 -117.26557772 100.56459182 -117 90 C-116.98195313 88.79601562 -116.96390625 87.59203125 -116.9453125 86.3515625 C-116.42462114 73.456794 -113.4582704 59.7304934 -108 48 C-107.34 48 -106.68 48 -106 48 C-105.89300781 47.2884375 -105.78601563 46.576875 -105.67578125 45.84375 C-101.98633249 30.3182084 -86.63976884 17.43833095 -74 9 C-73.27683594 8.51015625 -72.55367187 8.0203125 -71.80859375 7.515625 C-50.75749246 -5.42660805 -23.29457058 -5.2751726 0 0 Z " fill="#030303" transform="translate(669,362)"/>
<path d="M0 0 C0.8647998 0.00572021 1.72959961 0.01144043 2.62060547 0.01733398 C19.66379634 0.48248999 32.33118824 7.6000449 44.09765625 19.73828125 C48.69561293 25.16525182 53.4375 31.2206692 53.4375 38.5 C54.0975 38.5 54.7575 38.5 55.4375 38.5 C56.09287907 40.64293716 56.73629288 42.78953478 57.375 44.9375 C57.91447266 46.72994141 57.91447266 46.72994141 58.46484375 48.55859375 C63.18436254 66.32711318 62.43205533 89.85689547 57.4375 107.5 C57.17066406 108.469375 56.90382813 109.43875 56.62890625 110.4375 C52.02766088 124.83428553 42.29686222 138.94257064 28.90625 146.2578125 C28.0915625 146.66773438 27.276875 147.07765625 26.4375 147.5 C25.6846875 147.88929688 24.931875 148.27859375 24.15625 148.6796875 C12.4758875 154.31422856 -0.89030481 155.37538183 -13.375 151.875 C-23.99708641 148.16242611 -29.99515798 142.50409336 -36.5625 133.5 C-37.13226562 132.80132813 -37.70203125 132.10265625 -38.2890625 131.3828125 C-39.5625 129.5 -39.5625 129.5 -39.5625 126.5 C-40.2225 126.5 -40.8825 126.5 -41.5625 126.5 C-41.5625 152.57 -41.5625 178.64 -41.5625 205.5 C-54.1025 205.5 -66.6425 205.5 -79.5625 205.5 C-79.5625 138.51 -79.5625 71.52 -79.5625 2.5 C-67.0225 2.5 -54.4825 2.5 -41.5625 2.5 C-41.5625 10.75 -41.5625 19 -41.5625 27.5 C-40.9025 27.5 -40.2425 27.5 -39.5625 27.5 C-39.315 26.79875 -39.0675 26.0975 -38.8125 25.375 C-34.47566838 15.40028727 -26.62942297 6.95626689 -16.56469727 2.64404297 C-11.00370026 0.60207162 -5.9019772 -0.04604545 0 0 Z " fill="#030303" transform="translate(831.5625,408.5)"/>
<path d="M0 0 C17.49 0 34.98 0 53 0 C60.05848778 19.35391811 66.67877866 38.80431619 73.10864258 58.37426758 C73.45693115 59.4289624 73.80521973 60.48365723 74.1640625 61.5703125 C74.62159912 62.96080811 74.62159912 62.96080811 75.08837891 64.37939453 C75.99391827 66.98251705 77.00054908 69.51964396 78.0625 72.0625 C79.84558252 76.40876364 81.09862011 80.78721914 82.28515625 85.328125 C83.64820612 90.42280319 85.10800437 95.35323884 87.625 100 C89.43579708 103.95082999 89.72283989 107.69923964 90 112 C90.66 112 91.32 112 92 112 C92.33741211 113.23532471 92.33741211 113.23532471 92.68164062 114.49560547 C95.28424361 123.83290005 98.30404679 132.97601362 101.5 142.125 C102.21510944 144.18282343 102.92912648 146.24102285 103.64283752 148.29933167 C104.10621896 149.63542573 104.57018801 150.97131616 105.03477478 152.30699158 C106.78456985 157.34646615 108.47329248 162.40430481 110.12915039 167.4753418 C110.9749742 169.92744832 111.93165441 172.29721659 112.9375 174.6875 C115.76088158 181.95984649 117.79876795 189.51581104 120 197 C105.48 197 90.96 197 76 197 C74.35 191.72 72.7 186.44 71 181 C69.49273085 176.48423371 67.97212497 171.9749794 66.41992188 167.47460938 C66.13310547 166.62833984 65.84628906 165.78207031 65.55078125 164.91015625 C65.29981689 164.17933838 65.04885254 163.44852051 64.7902832 162.69555664 C63.66269921 158.8495094 62.86944269 154.9124921 62 151 C38.9 151.33 15.8 151.66 -8 152 C-10.31 159.92 -12.62 167.84 -15 176 C-16.30395033 180.02051352 -17.61743285 184.0104736 -19 188 C-19.99 190.97 -20.98 193.94 -22 197 C-36.19 197 -50.38 197 -65 197 C-62.7467387 186.86032415 -62.7467387 186.86032415 -61.58984375 183.22265625 C-61.32671387 182.39258057 -61.06358398 181.56250488 -60.79248047 180.70727539 C-60.51033691 179.83449951 -60.22819336 178.96172363 -59.9375 178.0625 C-59.63730957 177.12591553 -59.33711914 176.18933105 -59.02783203 175.22436523 C-55.85996579 165.42392988 -52.47101342 155.70084266 -49.078125 145.9765625 C-46.44106312 138.41460937 -43.90912315 130.82028436 -41.41308594 123.21069336 C-39.72008653 118.08548882 -37.95896574 112.98517415 -36.1875 107.88671875 C-35.39519759 105.6001236 -34.60329463 103.31339048 -33.81152344 101.02661133 C-33.27217074 99.47199694 -32.73116477 97.91795512 -32.18847656 96.36450195 C-29.3254875 88.16333965 -26.55908061 80.0538205 -24.67724609 71.55859375 C-23.91098023 68.66368884 -22.82406651 66.05585371 -21.625 63.3125 C-19.62370174 58.71481276 -18.07773289 54.10157922 -16.72265625 49.28125 C-14.23298992 40.63188915 -11.4655065 32.08963728 -8.60571289 23.55639648 C-7.7983401 21.14521206 -6.99757551 18.73189617 -6.19726562 16.31835938 C-5.68007317 14.76810045 -5.16250953 13.21796529 -4.64453125 11.66796875 C-4.40805374 10.95448776 -4.17157623 10.24100677 -3.92793274 9.50590515 C-2.80627803 6.1725149 -1.57929735 3.1585947 0 0 Z " fill="#020202" transform="translate(1268,362)"/>
<path d="M0 0 C0.94359375 0.65871094 1.8871875 1.31742187 2.859375 1.99609375 C10.33880643 7.62632874 15.17060838 14.11940279 20 22 C20.43054687 22.67546875 20.86109375 23.3509375 21.3046875 24.046875 C29.90768564 39.11879421 29 59.9779226 29 76 C-3.67 76 -36.34 76 -70 76 C-67.93452933 90.4582947 -66.40514064 98.46266839 -55.1875 107.1875 C-46.56639419 112.08969742 -35.54238158 112.5677987 -25.984375 110.27734375 C-17.88251885 107.28159754 -13.75482573 101.92846035 -9 95 C-1.37282622 95.70969425 6.05119878 97.07852959 13.5625 98.5625 C14.76197266 98.79646484 15.96144531 99.03042969 17.19726562 99.27148438 C20.1321579 99.84443147 23.06636078 100.42067727 26 101 C23.7178235 114.2854619 15.00926426 123.32224741 4.50390625 131.30078125 C0.23951247 134.19471463 -4.20036082 136.15886857 -9 138 C-9.93328125 138.39445313 -10.8665625 138.78890625 -11.828125 139.1953125 C-31.02780194 146.09368889 -55.0377201 143.60353714 -73.375 135.3125 C-79.42466971 132.04616954 -84.17604731 127.85574151 -89 123 C-90.15822266 121.92685547 -90.15822266 121.92685547 -91.33984375 120.83203125 C-105.28205161 106.98515472 -110.18297123 85.54920478 -110.25 66.5 C-110.25726561 46.88467104 -104.90934097 29.36401146 -94 13 C-93.34 13 -92.68 13 -92 13 C-91.75894531 12.42894531 -91.51789063 11.85789062 -91.26953125 11.26953125 C-85.54071166 1.02816454 -72.39659607 -5.46999699 -61.625 -8.875 C-41.55069575 -14.47878105 -17.07865418 -12.27223293 0 0 Z " fill="#050505" transform="translate(1566,420)"/>
<path d="M0 0 C1.16015625 0.42539062 2.3203125 0.85078125 3.515625 1.2890625 C10.98265529 4.25998732 16.95963254 7.73660927 23 13 C24.03125 13.763125 25.0625 14.52625 26.125 15.3125 C38.13372378 26.53804614 43.2895051 41.79540998 45.1875 57.6875 C45.27153076 58.36876953 45.35556152 59.05003906 45.44213867 59.75195312 C46.26904949 67.56871874 46 75.01358831 46 83 C13 83 -20 83 -54 83 C-51.5233912 96.37678302 -51.5233912 96.37678302 -46 108 C-45.443125 108.928125 -44.88625 109.85625 -44.3125 110.8125 C-36.28223447 118.40869713 -26.23015805 119.62829397 -15.671875 119.39453125 C-9.20528526 119.02467577 -4.07520926 117.05383329 1 113 C3.73261229 109.86099921 5.96480804 106.62608145 8 103 C15.62717378 103.70969425 23.05119878 105.07852959 30.5625 106.5625 C31.76197266 106.79646484 32.96144531 107.03042969 34.19726562 107.27148438 C37.1321579 107.84443147 40.06636078 108.42067727 43 109 C41.44201686 119.27702009 35.72778342 128.10696897 28 135 C8.35028326 149.24153782 -12.80975936 152.47199666 -36.61181641 149.6953125 C-45.75217832 148.16246892 -53.97256815 144.56104082 -62 140 C-62 139.34 -62 138.68 -62 138 C-62.721875 137.76667969 -63.44375 137.53335938 -64.1875 137.29296875 C-76.23371103 131.75505785 -83.29277646 117.61840722 -88 106 C-89.22315475 102.36967669 -90.16643343 98.73724879 -91 95 C-91.30744141 93.79923828 -91.30744141 93.79923828 -91.62109375 92.57421875 C-96.3991217 71.38613618 -92.43610919 47.39298939 -81.6953125 28.6640625 C-74.79078346 17.81408829 -65.79963176 8.47840046 -54 3 C-52.68 3 -51.36 3 -50 3 C-50 2.34 -50 1.68 -50 1 C-48.67037928 0.51062571 -47.33600575 0.03416419 -46 -0.4375 C-45.2575 -0.70433594 -44.515 -0.97117187 -43.75 -1.24609375 C-30.37430491 -4.91301016 -12.97523094 -4.76714286 0 0 Z " fill="#030303" transform="translate(995,412)"/>
<path d="M0 0 C0.95132812 0.71929687 0.95132812 0.71929687 1.921875 1.453125 C2.97375 2.195625 4.025625 2.938125 5.109375 3.703125 C12.15038819 10.58767124 19.45166569 23.53743145 20.04492283 33.52456188 C20.04400104 34.32559999 20.04307924 35.12663809 20.04212952 35.95195007 C20.04419151 37.33385025 20.04419151 37.33385025 20.04629517 38.7436676 C20.04269989 39.75211227 20.03910461 40.76055695 20.03540039 41.79956055 C20.03554642 42.86313782 20.03569244 43.92671509 20.0358429 45.02252197 C20.03514512 48.54498317 20.02735901 52.06739177 20.01953125 55.58984375 C20.01766659 58.0293627 20.01624291 60.46888203 20.01524353 62.90840149 C20.01142213 69.33473745 20.00159504 75.76105088 19.99053955 82.18737793 C19.98031733 88.74275406 19.97574417 95.29813383 19.97070312 101.85351562 C19.95997246 114.72006359 19.94237869 127.5865889 19.921875 140.453125 C7.051875 140.453125 -5.818125 140.453125 -19.078125 140.453125 C-19.0874707 137.59736816 -19.09681641 134.74161133 -19.10644531 131.79931641 C-19.14028727 122.33965079 -19.19587644 112.88020167 -19.26202774 103.42070961 C-19.30145355 97.68817666 -19.33366617 91.9557962 -19.34912109 86.22314453 C-19.36431973 80.6856842 -19.39882267 75.14864324 -19.44643402 69.61137009 C-19.46121469 67.50402863 -19.4691641 65.39662729 -19.47000885 63.28923416 C-19.47239022 60.32599991 -19.49956416 57.36391369 -19.53222656 54.40087891 C-19.5271962 53.53916077 -19.52216583 52.67744263 -19.51698303 51.78961182 C-19.63920599 44.57275106 -21.44555037 37.79133819 -25.97265625 32.05078125 C-34.361328 25.33642688 -41.30945623 23.32632018 -52.078125 24.453125 C-59.29915359 26.13569477 -64.65113145 29.51247791 -69.078125 35.453125 C-72.50907903 42.0119802 -73.66729189 47.97748335 -73.62402344 55.30908203 C-73.63436111 56.2371315 -73.64469879 57.16518097 -73.65534973 58.12135315 C-73.68455818 61.15139634 -73.68627224 64.18076519 -73.6875 67.2109375 C-73.70249648 69.32658139 -73.71922669 71.44221364 -73.73760986 73.55783081 C-73.7811306 79.09794684 -73.8012486 84.63790496 -73.81634521 90.17816162 C-73.83597147 95.84282712 -73.87793522 101.50732347 -73.91796875 107.171875 C-73.99310555 118.26560127 -74.04142997 129.3592049 -74.078125 140.453125 C-86.948125 140.453125 -99.818125 140.453125 -113.078125 140.453125 C-113.078125 91.613125 -113.078125 42.773125 -113.078125 -7.546875 C-100.868125 -7.546875 -88.658125 -7.546875 -76.078125 -7.546875 C-75.748125 1.693125 -75.418125 10.933125 -75.078125 20.453125 C-73.098125 16.823125 -71.118125 13.193125 -69.078125 9.453125 C-62.54445852 0.54772619 -54.41184646 -6.51994425 -43.48828125 -9.0703125 C-27.37284071 -11.32241301 -13.48502329 -9.74465187 0 0 Z " fill="#030303" transform="translate(1170.078125,418.546875)"/>
<path d="M0 0 C13.86 0 27.72 0 42 0 C42.495 2.475 42.495 2.475 43 5 C43.66 5 44.32 5 45 5 C46.18359375 6.50390625 46.18359375 6.50390625 47.4375 8.5625 C47.84871094 9.22378906 48.25992187 9.88507813 48.68359375 10.56640625 C50.01502547 13.02777706 51.07809164 15.54933837 52.15844727 18.12817383 C53.62889855 21.39882948 55.45289932 24.46306881 57.25 27.5625 C61.45342383 34.9113489 65.29991663 42.38568053 69 50 C69.91935844 48.18886387 70.8353233 46.37600505 71.75 44.5625 C72.26046875 43.55316406 72.7709375 42.54382813 73.296875 41.50390625 C74.55230333 38.92106402 75.72737511 36.34736417 76.8671875 33.71484375 C79.09810312 28.65529348 81.69730941 23.83471912 84.375 19 C84.83132813 18.16210938 85.28765625 17.32421875 85.7578125 16.4609375 C86.68333903 14.78147083 87.63746725 13.11744597 88.61962891 11.47045898 C90.06380387 9.03871761 90.06380387 9.03871761 90.95458984 6.39086914 C92.30602483 3.32159537 93.2188778 1.92385475 96 0 C102.7879901 -1.52800257 109.98028539 -0.83886797 116.875 -0.5625 C118.82282484 -0.51733352 120.7707495 -0.47627269 122.71875 -0.43945312 C127.48163458 -0.34048618 132.23972529 -0.18532948 137 0 C135.81753318 3.12086537 134.55264902 5.92810147 132.7421875 8.73046875 C132.0630127 9.79177002 132.0630127 9.79177002 131.37011719 10.87451172 C130.87672852 11.63779785 130.38333984 12.40108398 129.875 13.1875 C124.75291622 21.20128782 119.72624013 29.27005263 114.75 37.375 C113.77716064 38.95897583 113.77716064 38.95897583 112.78466797 40.57495117 C108.82752906 47.02032747 108.82752906 47.02032747 104.87695312 53.46972656 C104.17320671 54.6178567 103.46943147 55.76596917 102.765625 56.9140625 C101.82638184 58.44861084 101.82638184 58.44861084 100.86816406 60.01416016 C99.56004206 62.1048988 98.19578412 64.16107223 96.79150391 66.18847656 C94.67269636 69.51365886 94.43206433 71.12771132 95 75 C96.13981072 77.50585756 96.13981072 77.50585756 97.875 79.875 C98.51695313 80.83019531 99.15890625 81.78539062 99.8203125 82.76953125 C100.89925781 84.36861328 100.89925781 84.36861328 102 86 C103.60461326 88.50763939 105.17792938 91.03436515 106.75 93.5625 C107.16926758 94.23369873 107.58853516 94.90489746 108.02050781 95.59643555 C111.25177981 100.77533185 114.44457715 105.97725473 117.625 111.1875 C118.08567871 111.94208496 118.54635742 112.69666992 119.02099609 113.47412109 C120.74323337 116.29662546 122.4650711 119.11935671 124.18164062 121.9453125 C128.78229905 129.58264429 128.78229905 129.58264429 133.8125 136.9375 C139 144.2 139 144.2 139 148 C125.14 148 111.28 148 97 148 C90 134 90 134 90 132 C89.34 132 88.68 132 88 132 C87.65743164 131.33468262 87.31486328 130.66936523 86.96191406 129.98388672 C85.39493719 126.9456868 83.82252206 123.91033327 82.25 120.875 C81.71117187 119.82828125 81.17234375 118.7815625 80.6171875 117.703125 C77.43629196 111.50000743 77.43629196 111.50000743 73.75 105.59375 C71.9970522 102.99563094 70.85650959 100.54934677 69.75 97.625 C69.41484375 96.75101562 69.0796875 95.87703125 68.734375 94.9765625 C68.49203125 94.32429688 68.2496875 93.67203125 68 93 C66.17283957 95.74074065 65.19069356 97.95711645 64 101 C62.68540458 104.00840107 61.34427061 107.00475627 60 110 C59.34 110 58.68 110 58 110 C57.90460938 110.69867187 57.80921875 111.39734375 57.7109375 112.1171875 C56.71400147 116.15970831 54.72083101 119.40152437 52.49584961 122.90087891 C50.19727023 126.59592495 48.64713296 129.94073522 47.46484375 134.140625 C45.48281011 140.07023189 43.63448063 144.80706423 38 148 C24.95881528 151.0915101 10.21299638 149.10999595 -3 148 C-1.7107063 143.95010912 -0.4436478 140.89300454 2.125 137.5 C4.81646239 133.77251645 7.19676186 130.01444882 9.4375 126 C13.35449916 118.98879145 17.53879023 112.15023061 21.75 105.3125 C22.43747314 104.19133789 23.12494629 103.07017578 23.83325195 101.91503906 C27.06956254 96.65826519 30.34231988 91.44070841 33.7734375 86.30859375 C34.34223633 85.4477417 34.91103516 84.58688965 35.49707031 83.69995117 C36.55432332 82.10883931 37.62837968 80.52872003 38.72167969 78.9621582 C41.45818977 74.89917704 41.45818977 74.89917704 41.7265625 70.15234375 C39.11873055 65.39098541 36.23060335 60.84806687 33.25 56.3125 C29.03142672 49.86398173 25.04713862 43.39700967 21.41162109 36.60083008 C19.30204369 32.71405595 17.0093069 28.95014905 14.6875 25.1875 C14.22110107 24.42630859 13.75470215 23.66511719 13.27416992 22.88085938 C9.82393377 17.27239538 6.28786971 11.722085 2.64135742 6.23901367 C0 2.21458087 0 2.21458087 0 0 Z " fill="#030303" transform="translate(1598,411)"/>
<path d="M0 0 C1.27617188 0.58007812 1.27617188 0.58007812 2.578125 1.171875 C15.64769372 7.36272334 22.89641586 17.34171906 28.2109375 30.64282227 C31.67868281 41.0020676 32.55441027 51.32789122 32.5 62.1875 C32.49790527 62.86054169 32.49581055 63.53358337 32.49365234 64.22702026 C32.37183642 83.29600645 28.51126812 101.14018511 15.125 115.5 C4.01544079 125.59370457 -8.7738711 129.05223281 -23.609375 128.47265625 C-34.97755153 127.56572839 -45.47341144 122.60418384 -53 114 C-58 107.94549763 -58 107.94549763 -58 105 C-58.66 105 -59.32 105 -60 105 C-66.30264131 91.62245697 -68.52926413 78.65384482 -68.39111328 63.96557617 C-68.37497262 61.93405386 -68.39110898 59.90451134 -68.41015625 57.87304688 C-68.43921832 39.94566864 -64.46357422 23.31598133 -52 10 C-39.08966755 -2.83766641 -16.99561872 -8.30018589 0 0 Z " fill="#FCFCFC" transform="translate(661,398)"/>
<path d="M0 0 C12.87 0 25.74 0 39 0 C39 65.34 39 130.68 39 198 C26.13 198 13.26 198 0 198 C0 132.66 0 67.32 0 0 Z " fill="#040404" transform="translate(1401,361)"/>
<path d="M0 0 C8.82218592 4.76830011 13.91874003 12.12964567 17.0625 21.5 C21.2432988 35.66241053 22.02917406 56.14720805 15.0625 69.5 C9.99245152 77.66610268 5.35110954 84.42907367 -4.16015625 86.95703125 C-12.62190297 88.61129678 -20.49474761 88.10512789 -27.9375 83.5 C-36.39000099 76.719126 -39.33466748 68.66731452 -41.9375 58.5 C-42.13988281 57.72398437 -42.34226562 56.94796875 -42.55078125 56.1484375 C-44.85249112 40.38521232 -43.8226342 21.72934224 -34.75 8.25 C-25.34057494 -0.95032673 -12.77358758 -5.07811625 0 0 Z " fill="#FCFCFC" transform="translate(832.9375,442.5)"/>
<path d="M0 0 C0.66 0 1.32 0 2 0 C2.17539307 0.68175293 2.35078613 1.36350586 2.53149414 2.06591797 C4.6730705 10.38108943 6.83076836 18.69200511 9 27 C9.2882666 28.10456543 9.5765332 29.20913086 9.87353516 30.34716797 C13.64322342 44.73028436 17.71904478 58.99892094 22.06787109 73.21606445 C22.43477051 74.419646 22.80166992 75.62322754 23.1796875 76.86328125 C23.50694824 77.92844971 23.83420898 78.99361816 24.17138672 80.09106445 C24.91266635 82.69340589 25.46933726 85.34668632 26 88 C9.83 88 -6.34 88 -23 88 C-21.66079419 81.97357387 -20.21625006 76.23063598 -18.375 70.375 C-15.14922102 59.91599664 -12.45378836 49.32858491 -9.80419922 38.71240234 C-7.09917889 27.99150058 -7.09917889 27.99150058 -5.36328125 23.59375 C-3.86875909 19.65403543 -3.0673998 15.88866243 -2.375 11.75 C-0.89338879 3.27014011 -0.89338879 3.27014011 0 0 Z " fill="#F3F3F3" transform="translate(1293,394)"/>
<path d="M0 0 C0.64453125 0.433125 1.2890625 0.86625 1.953125 1.3125 C2.65953125 1.786875 3.3659375 2.26125 4.09375 2.75 C10.71989914 7.85458896 13.36716536 14.55462108 15.953125 22.3125 C15.953125 24.6225 15.953125 26.9325 15.953125 29.3125 C-4.506875 29.3125 -24.966875 29.3125 -46.046875 29.3125 C-44.77250685 19.11755483 -43.17529419 11.05867532 -35.2890625 4.0390625 C-25.37456079 -3.59544927 -11.49733804 -6.31914763 0 0 Z " fill="#F5F5F5" transform="translate(1541.046875,441.6875)"/>
<path d="M0 0 C0.68191406 -0.01611328 1.36382813 -0.03222656 2.06640625 -0.04882812 C9.52113219 -0.05592786 15.1946473 2.80027512 21.125 7.3125 C28.22417633 15.07206483 31.125 21.83193266 31.125 32.3125 C10.665 32.3125 -9.795 32.3125 -30.875 32.3125 C-29.5439379 21.66400317 -27.10717987 13.83592216 -18.8828125 6.546875 C-12.73941528 1.77125301 -7.85426575 -0.03670218 0 0 Z " fill="#FAFAFA" transform="translate(971.875,438.6875)"/>
<path d="M0 0 C1.38967717 2.77935434 0.78549604 3.98893185 0 7 C-0.99 9.64 -1.98 12.28 -3 15 C16.8 15 36.6 15 57 15 C57.33 13.68 57.66 12.36 58 11 C58 12.65 58 14.3 58 16 C37.54 16 17.08 16 -4 16 C-3.18070152 9.44561216 -2.3760065 5.78505931 0 0 Z " fill="#999999" transform="translate(945,455)"/>
<path d="M0 0 C0.66 0.99 1.32 1.98 2 3 C0.02 5.97 0.02 5.97 -2 9 C10.54 9 23.08 9 36 9 C36 9.33 36 9.66 36 10 C22.47 10 8.94 10 -5 10 C-2.75 3.25 -2.75 3.25 0 0 Z " fill="#252525" transform="translate(1600,549)"/>
<path d="M0 0 C1.38967717 2.77935434 0.78549604 3.98893185 0 7 C-0.94395426 9.69201769 -1.96350585 12.34116719 -3 15 C2.28 15 7.56 15 13 15 C13 15.33 13 15.66 13 16 C7.39 16 1.78 16 -4 16 C-3.18070152 9.44561216 -2.3760065 5.78505931 0 0 Z " fill="#8F8F8F" transform="translate(945,455)"/>
<path d="M0 0 C0.66 0.33 1.32 0.66 2 1 C1.4225 1.55429687 0.845 2.10859375 0.25 2.6796875 C-0.4925 3.40414063 -1.235 4.12859375 -2 4.875 C-2.7425 5.59429687 -3.485 6.31359375 -4.25 7.0546875 C-6.22293325 8.81170957 -6.22293325 8.81170957 -6 11 C-7.96147874 12.38938077 -9.96166576 13.7260411 -12 15 C-10.57641609 10.45925821 -8.27867927 7.96026853 -4.875 4.6875 C-3.96492188 3.80449219 -3.05484375 2.92148437 -2.1171875 2.01171875 C-1.41851562 1.34785156 -0.71984375 0.68398438 0 0 Z " fill="#292929" transform="translate(264,481)"/>
<path d="M0 0 C0.66 0.33 1.32 0.66 2 1 C-1.63 4.63 -5.26 8.26 -9 12 C-9 8.00102358 -7.64683965 6.93298448 -5 4 C-3.36643049 2.62631655 -1.7074998 1.28062485 0 0 Z " fill="#CBCBCB" transform="translate(806,444)"/>
<path d="M0 0 C0.66 0.33 1.32 0.66 2 1 C-1.3 4.63 -4.6 8.26 -8 12 C-8.66 11.67 -9.32 11.34 -10 11 C-8.52116808 9.35386588 -7.04192523 7.70810092 -5.5625 6.0625 C-4.73878906 5.14597656 -3.91507812 4.22945313 -3.06640625 3.28515625 C-1 1 -1 1 0 0 Z " fill="#292929" transform="translate(334,356)"/>
<path d="M0 0 C1 3 1 3 0 6 C-1.62890625 7.38671875 -1.62890625 7.38671875 -3.5625 8.6875 C-4.52349609 9.34298828 -4.52349609 9.34298828 -5.50390625 10.01171875 C-5.99761719 10.33785156 -6.49132813 10.66398437 -7 11 C-5.5140084 6.40693504 -3.14985318 3.56430755 0 0 Z " fill="#2C2C2C" transform="translate(1106,422)"/>
<path d="M0 0 C0.66 0 1.32 0 2 0 C2.33 2.64 2.66 5.28 3 8 C2.01 8 1.02 8 0 8 C-0.98120464 4.94736336 -0.98120464 3.05263664 0 0 Z " fill="#C0C0C0" transform="translate(1293,394)"/>
<path d="M0 0 C0.66 0.33 1.32 0.66 2 1 C-2.30769231 6.78461538 -2.30769231 6.78461538 -5.8125 7.875 C-6.8953125 7.936875 -6.8953125 7.936875 -8 8 C-5.58443874 4.80800833 -3.31996462 2.25283313 0 0 Z " fill="#383838" transform="translate(1486,420)"/>
<path d="M0 0 C0.66 0.33 1.32 0.66 2 1 C-0.31 3.31 -2.62 5.62 -5 8 C-5.99 7.67 -6.98 7.34 -8 7 C-5.36 4.69 -2.72 2.38 0 0 Z " fill="#3B3B3B" transform="translate(808,415)"/>
<path d="M0 0 C0 3.90838866 -1.50567876 5.11594107 -4 8 C-4 7.34 -4 6.68 -4 6 C-5.32 6.33 -6.64 6.66 -8 7 C-5.4837822 4.39391727 -2.94865641 2.10618315 0 0 Z " fill="#D7D7D7" transform="translate(1025,544)"/>
<path d="M0 0 C1.37562854 1.28965176 2.70766393 2.62689293 4 4 C4 4.66 4 5.32 4 6 C3.34 6 2.68 6 2 6 C1.67 6.66 1.34 7.32 1 8 C0 7 0 7 -0.0625 3.4375 C-0.041875 2.303125 -0.02125 1.16875 0 0 Z " fill="#EAEAEA" transform="translate(791,536)"/>
<path d="M0 0 C0.33 1.32 0.66 2.64 1 4 C-1.4375 6.75 -1.4375 6.75 -4 9 C-4.66 8.67 -5.32 8.34 -6 8 C-4.02 5.36 -2.04 2.72 0 0 Z " fill="#C1C1C1" transform="translate(716,523)"/>
<path d="M0 0 C0.33 0.99 0.66 1.98 1 3 C1.66 3 2.32 3 3 3 C1.91926148 5.16147703 0.80636736 6.41039672 -1 8 C-1.66 8 -2.32 8 -3 8 C-1.125 2.25 -1.125 2.25 0 0 Z " fill="#333333" transform="translate(685,498)"/>
<path d="M0 0 C1.74364165 3.4872833 0.08197968 6.74441629 -1.0625 10.3125 C-1.371875 11.199375 -1.68125 12.08625 -2 13 C-2.33 13 -2.66 13 -3 13 C-2.52060632 8.28596212 -2.03165952 4.33420699 0 0 Z " fill="#BEBEBE" transform="translate(945,455)"/>
</svg>
